<svg xmlns="http://www.w3.org/2000/svg" xmlns:xlink="http://www.w3.org/1999/xlink" xmlns:xodm="http://www.corel.com/coreldraw/odm/2003" xml:space="preserve" version="1.1" style="shape-rendering:geometricPrecision;text-rendering:geometricPrecision;image-rendering:optimizeQuality;" viewBox="0 0 846.66 1058.325" x="0px" y="0px" fill-rule="evenodd" clip-rule="evenodd"><defs><style type="text/css">
   
    .fil0 {fill:black;fill-rule:nonzero}
   
  </style></defs><g><path class="fil0" d="M46.46 412.35c26.26,-31.49 53.94,-59.24 82.67,-83.17 90.96,-75.78 192.52,-113.68 294.2,-113.68 101.68,0 203.23,37.9 294.19,113.68 28.79,23.98 56.53,51.8 82.84,83.37 5.33,6.42 5.1,15.63 -0.17,21.76 -26.26,31.49 -53.94,59.24 -82.67,83.17 -90.96,75.78 -192.52,113.68 -294.2,113.68 -101.68,0 -203.23,-37.9 -294.19,-113.68 -28.79,-23.98 -56.53,-51.8 -82.84,-83.37 -5.33,-6.42 -5.1,-15.63 0.17,-21.76zm559.34 286.31c4.67,8.07 1.92,18.42 -6.15,23.09 -8.07,4.67 -18.42,1.92 -23.09,-6.15l-27.03 -46.81c-4.67,-8.07 -1.92,-18.42 6.15,-23.09 8.07,-4.67 18.42,-1.92 23.09,6.15l27.03 46.81zm-510.37 -66.5c-8.07,4.67 -18.42,1.92 -23.09,-6.15 -4.67,-8.07 -1.92,-18.42 6.15,-23.09l50.74 -29.3c8.07,-4.67 18.42,-1.92 23.09,6.15 4.67,8.07 1.92,18.42 -6.15,23.09l-50.74 29.3zm672.67 -29.24c8.07,4.63 10.85,14.95 6.22,23.02 -4.63,8.07 -14.95,10.85 -23.02,6.22l-50.75 -29.3c-8.07,-4.63 -10.85,-14.95 -6.22,-23.02 4.63,-8.07 14.95,-10.85 23.02,-6.22l50.75 29.3zm-496.52 112.68c-4.67,8.07 -15.02,10.82 -23.09,6.15 -8.07,-4.67 -10.82,-15.02 -6.15,-23.09l26.79 -46.4c4.67,-8.07 15.02,-10.82 23.09,-6.15 8.07,4.67 10.82,15.02 6.15,23.09l-26.79 46.4zm168.68 19.38c0,9.35 -7.59,16.94 -16.94,16.94 -9.35,0 -16.94,-7.59 -16.94,-16.94l0 -52.77c0,-9.35 7.59,-16.94 16.94,-16.94 9.35,0 16.94,7.59 16.94,16.94l0 52.77zm-142.1 -557.45c4.67,8.07 1.92,18.42 -6.15,23.09 -8.07,4.67 -18.42,1.92 -23.09,-6.15l-26.6 -46.06c-4.67,-8.07 -1.92,-18.42 6.15,-23.09 8.07,-4.67 18.42,-1.92 23.09,6.15l26.6 46.06zm419.27 95.52c-8.07,4.67 -18.42,1.92 -23.09,-6.15 -4.67,-8.07 -1.92,-18.42 6.15,-23.09l50.73 -29.3c8.07,-4.67 18.42,-1.92 23.09,6.15 4.67,8.07 1.92,18.42 -6.15,23.09l-50.73 29.3zm-571.26 -29.25c8.07,4.67 10.82,15.02 6.15,23.09 -4.67,8.07 -15.02,10.82 -23.09,6.15l-50.73 -29.29c-8.07,-4.67 -10.82,-15.02 -6.15,-23.09 4.67,-8.07 15.02,-10.82 23.09,-6.15l50.73 29.29zm432.82 -48.99c-4.63,8.07 -14.95,10.85 -23.02,6.22 -8.07,-4.63 -10.85,-14.95 -6.22,-23.02l26.82 -46.47c4.63,-8.07 14.95,-10.85 23.02,-6.22 8.07,4.63 10.85,14.95 6.22,23.02l-26.82 46.47zm-138.73 -30.36c0,9.35 -7.59,16.94 -16.94,16.94 -9.35,0 -16.94,-7.59 -16.94,-16.94l0 -52.77c0,-9.35 7.59,-16.94 16.94,-16.94 9.35,0 16.94,7.59 16.94,16.94l0 52.77zm-16.93 207.21c-9.35,0 -16.94,-7.59 -16.94,-16.94 0,-9.35 7.59,-16.94 16.94,-16.94 11.07,0 21.69,2.13 31.44,5.99 10.06,3.97 19.24,9.87 27.08,17.22 6.79,6.39 7.11,17.09 0.72,23.88 -6.39,6.79 -17.09,7.11 -23.88,0.72 -4.66,-4.37 -10.21,-7.91 -16.36,-10.34 -5.83,-2.31 -12.26,-3.59 -19,-3.59zm51.67 48.88c-0.18,-9.31 7.23,-17.02 16.54,-17.2 9.31,-0.18 17.02,7.23 17.2,16.54l0.07 3.12c0.18,9.31 -7.23,17.02 -16.54,17.2 -9.31,0.18 -17.02,-7.23 -17.2,-16.54l-0.07 -3.12zm-51.67 -148.07c41.6,0 79.31,16.9 106.61,44.19 27.35,27.36 44.25,65.07 44.25,106.67 0,41.6 -16.9,79.31 -44.19,106.61 -27.36,27.35 -65.07,44.25 -106.67,44.25 -41.6,0 -79.31,-16.9 -106.61,-44.19 -27.35,-27.36 -44.25,-65.07 -44.25,-106.67 0,-41.6 16.9,-79.31 44.19,-106.61 27.36,-27.35 65.07,-44.25 106.67,-44.25zm82.76 68.1c-21.16,-21.13 -50.43,-34.22 -82.76,-34.22 -32.33,0 -61.6,13.09 -82.76,34.22 -21.13,21.16 -34.22,50.43 -34.22,82.76 0,32.33 13.09,61.6 34.22,82.76 21.16,21.13 50.43,34.22 82.76,34.22 32.33,0 61.6,-13.09 82.76,-34.22 21.13,-21.16 34.22,-50.43 34.22,-82.76 0,-32.33 -13.09,-61.6 -34.22,-82.76zm-355.4 14.55c-23.91,19.91 -47.08,42.67 -69.28,68.21 22.2,25.54 45.37,48.3 69.28,68.21 84.6,70.48 178.7,105.74 272.63,105.74 93.93,0 188.04,-35.26 272.64,-105.74 23.91,-19.91 47.08,-42.67 69.28,-68.21 -22.2,-25.54 -45.37,-48.3 -69.28,-68.21 -84.6,-70.48 -178.7,-105.74 -272.63,-105.74 -93.93,0 -188.04,35.26 -272.64,105.74z"/></g></svg>