<svg xmlns="http://www.w3.org/2000/svg" version="1.1" viewBox="-5.0 -10.0 110.0 135.0">
 <path d="m23.199 53.879c4.4883 1.9922 8.125 0.089844 13.109-6.082 3.2266-4.2031 7.3711-5.0977 8.7031-5.2812 0.61719 1.1367 3.2422 6.3516 5.3828 4.3516 0.60156-0.61719 0.58984-1.6094-0.03125-2.2109-4.4492-4.3281-3.0508-8.2344-2.9727-8.4375 0.32031-0.79688-0.0625-1.6992-0.85547-2.0273-2.2031-0.65234-2.75 1.8906-2.4219 5.3086-2.1211 0.38281-6.7031 1.7266-10.289 6.3984-4.3555 6.0391-10.852 8.9688-11.734-0.55078 0-2.0977 0.85938-3.6133 2.5547-4.5039 0.71094-0.375 1.0234-1.2305 0.71875-1.9727-0.015625-0.039063-1.4648-3.6953-0.33984-6.6289 1.4883 1.5781 3.582 2.5352 5.8164 2.5352 4.4023 0 7.9844-3.5898 7.9844-8 0-2.4766-1.125-4.7383-2.9883-6.2227 0.12109-0.085938 0.23437-0.17578 0.35937-0.25781 2.0234-1.3008 4.5664-1.6055 7.5508-0.90234 0.63672 0.14844 1.3047-0.11719 1.6641-0.66406 1.5664-2.4297 6.2109-5.832 11.168-2.6094-0.21094 0.26953-0.40234 0.55078-0.57031 0.85547-2.3438 4.3281-6.9766 5.4297-7.0703 5.4531-2.0078 0.48047-1.3359 3.4531 0.66406 3.0547 0.24609-0.054687 6.0977-1.375 9.1523-7.0156 2.3281-3.4102 8.3789-2.043 10.477 2.1328 0.38281 0.77344 1.3164 1.0898 2.0938 0.71094 0.77344-0.38281 1.0898-1.3203 0.71094-2.0938-1.6875-3.4219-5.2891-5.6836-9.1797-5.7617-1.3164-0.035156-2.5391 0.21094-3.6133 0.67188-2.8945-2.0156-5.8047-2.8125-8.6641-2.3281-3.5625 0.59766-6.0156 3.0195-7.1211 4.3477-3.4414-0.61328-6.457-0.09375-8.9844 1.5391-3.5352 2.293-5.0508 6.1445-5.6016 7.9883-2.8906 0.74219-4.9141 2.0742-6.293 4.4141-1.7148 3.1211-1.0625 6.8086-0.52734 8.7031-4.9531 3.1953-3.3125 12.766 1.1406 15.09zm7.2266-25.344c0.63281-0.11328 1.1367-0.60547 1.2578-1.2383 0.007812-0.03125 0.47656-2.3164 1.9648-4.4688 3.8477 2.6289 1.8633 8.8672-2.8047 8.8203-1.5234 0-2.8945-0.6875-3.8047-1.8398 0.89063-0.58984 2.0039-1.0273 3.3867-1.2734z"/>
 <path d="m95.211 71.262c-2.3242-6.0664-8.6289-7.2891-11.117-7.5352-1.5-3.0781-3.1875-5.4023-4.1719-6.6328 2.5078-3.9453 1.4883-9.2422-1.1406-12.523 1.6875-2.1875 4.7852-7.1094 3.2891-12.219-1.9258-6.582-8.2148-8.8008-13.566-8.1641-1.7148-1.418-4.7305-2.9727-5.4062-0.46094-0.125 0.84766 0.46484 1.6367 1.3086 1.7734 0.41406 0.066406 4.0586 0.82031 4.1719 6.5977 0.015625 0.86328 0.73438 1.5508 1.5938 1.5312 2.8711-0.26172 0.99219-5.1367 0.53906-6.3906 5.8711-0.015625 10.566 5.6211 7.8477 11.555-4.707-1.8398-10.07 1.918-9.9766 6.9844-0.082031 4.8945 4.9492 8.6289 9.5977 7.0898-0.11719 3.5625-5.9258 7.9844-9.8398 6.1992-3.0977-1.4805-4.5117-6.1055-4.5273-6.1484-0.62109-1.9492-3.543-1.0938-2.9961 0.89062 0.070313 0.84375 3.1875 8.2617 8.2852 8.7305-1.6523 6.4062-7.6016 6.4297-10.73 5.3008-0.40625-0.15234-0.85938-0.125-1.25 0.066406-0.054688 0.027344-5.5586 2.7539-9.4023 2.3086-3.0859-0.36328-5.418-2.6172-6.7227-4.2344 0.87891-0.33594 1.7422-0.76172 2.5859-1.2969 0.4375-0.36328 1.6523 0.23828 2.4102 0.09375 1.2891 0.03125 3.3711-0.17188 3.0781-1.9844-0.15234-0.84766-0.96484-1.4062-1.8164-1.2578-5.1289 0.93359-7.9219-4.3164-8.0391-4.5391-0.95703-1.8008-3.6875-0.42188-2.7812 1.4258 0.089844 0.17578 1.3867 2.6484 3.8867 4.4531-0.66797 0.28906-1.3438 0.50781-2.0195 0.64062-3.5547 0.81641-8.2227-1.4766-9.1172-5.3438-0.21094-0.83594-1.0547-1.3438-1.8945-1.1367-1.707 0.46484-1.1562 2.4023-0.54297 3.5781-2.7656 1.2266-7.9219 4.4688-11.898 12.559-4.3164 8.7852-7.1523 9.5859-7.4023 9.6445-2.0273 0.035156-2.0469 3.1484 0.066407 3.125 1.2344 0 4.8086-0.98438 9.6602-10.457 1.6992 1.8945 4.3125 5.457 4.3711 9.4922 0.011719 0.85547 0.71094 1.5391 1.5625 1.5391 0.87109 0 1.5742-0.71484 1.5625-1.5859-0.035157-2.4922-0.80859-4.7773-1.8164-6.7344 1.4258-0.97656 4.25-2.5 7.2188-1.7695 0.83594 0.20312 1.6836-0.30859 1.8906-1.1445 0.20703-0.83984-0.30859-1.6836-1.1445-1.8906-4.0508-0.99609-7.6758 0.83984-9.6016 2.1328-0.92578-1.293-1.8398-2.3008-2.5-2.9648 3.7148-6.4141 8.0312-8.6406 9.8125-9.3203 2.2461 2.293 5.2695 3.5703 8.1992 3.5586 0.3125 0 0.62891-0.015625 0.94531-0.042969 0.97266 1.4258 3.1328 4.1367 6.3555 5.6133-0.007813 0.64062-0.0625 1.5586-0.26172 2.6445-6.2383-0.82031-12.805 5.3281-13.105 5.6133-1.4609 1.4023 0.66016 3.6758 2.1562 2.2617 1.625-1.5469 6.2109-5.0156 10.051-4.8359-1.1367 2.7383-3.3594 5.6445-7.7109 7.2617-0.80859 0.30078-1.2227 1.1992-0.92188 2.0078 0.30078 0.81641 1.2227 1.2188 2.0078 0.92188 6.2578-2.3242 8.9297-6.8906 10.066-10.719 0.46875-1.4414 0.69922-3.168 0.78516-4.2539 0.085938 0.011719 0.16797 0.035157 0.25391 0.042969 3.6562 0.50391 8.9688-1.5547 10.586-2.3398 0.65234 0.18359 1.7461 0.42188 3.0391 0.50781 0.21875 1.0742 0.64062 2.6445 1.4297 4.3398-1.6953 0.94531-4.1562 3.0977-6.5703 8.0547-0.51953 1 0.28516 2.2734 1.4023 2.2461 0.57812 0 1.1367-0.32422 1.4062-0.87891 2.1914-4.5 4.2422-6.1367 5.3281-6.7227 1.6172 2.2539 4.0273 4.3359 7.6289 5.3242 0.80859 0.23047 1.6953-0.25391 1.9219-1.0938 0.22656-0.83203-0.26172-1.6914-1.0938-1.9219-4.8594-1.2812-7.4102-5.6367-8.3008-9.5391 0.98828-0.19141 1.9961-0.51562 2.9766-1.0625 2.6367-1.4805 4.3945-4.1367 5.2617-7.8711 1.9727-0.48828 4.1992-1.7539 5.457-2.8555 2.1289 2.793 6.7617 9.875 6.0625 17.969-0.082031 0.90625 0.64844 1.6992 1.5586 1.6953 3.4727 0.078126 0.6875-10.566 0.0625-12.055 2.2656 0.51172 5.4648 1.8359 6.7812 5.2656 0.75 1.9023 3.6328 0.8125 2.918-1.1172zm-23.508-25.484c-0.039063-2.7656 2.6953-4.9102 5.3594-4.1875-1.2383 2.0312-1.9062 1.793-1.9609 3.2109 0.039063 0.44141 0.26172 0.85156 0.61719 1.1172 0.78516 0.58984 1.707 2 2.1875 3.7031-2.75 1.4648-6.2773-0.73438-6.2031-3.8477z"/>
 <path d="m45.797 54.703c0.035156 2.1367 3.2148 2.1367 3.25 0-0.035156-2.1367-3.2148-2.1367-3.25 0z"/>
 <path d="m52.367 33.148c0.035156 2.1367 3.2148 2.1367 3.25 0-0.035157-2.1367-3.2148-2.1367-3.25 0z"/>
 <path d="m63.941 42.328c2.1367-0.035156 2.1367-3.2148 0-3.25-2.1367 0.035156-2.1367 3.2148 0 3.25z"/>
</svg>