<svg xmlns="http://www.w3.org/2000/svg" xmlns:xlink="http://www.w3.org/1999/xlink" xmlns:xodm="http://www.corel.com/coreldraw/odm/2003" xml:space="preserve" version="1.1" style="shape-rendering:geometricPrecision;text-rendering:geometricPrecision;image-rendering:optimizeQuality;" viewBox="0 0 846.66 1058.325" x="0px" y="0px" fill-rule="evenodd" clip-rule="evenodd"><defs><style type="text/css">
   
    .fil0 {fill:black;fill-rule:nonzero}
   
  </style></defs><g><path class="fil0" d="M473.52 164.14c29.17,5.63 56.66,16.07 81.59,30.46 25.55,14.71 48.38,33.61 67.6,55.75l18.82 -10.86c-5.1,-10.97 -5.9,-23.03 -2.96,-34.04 3.32,-12.41 11.39,-23.56 23.33,-30.46l1.41 -0.73c11.65,-6.27 24.78,-7.46 36.66,-4.28 12.38,3.31 23.54,11.36 30.45,23.32 15.28,26.93 31.71,53.64 46.54,80.75 6.12,11.57 7.25,24.56 4.1,36.35 -3.15,11.78 -10.63,22.45 -21.72,29.42 -1.04,0.78 -2.16,1.42 -3.32,1.93 -11.57,6.12 -24.57,7.26 -36.36,4.11 -11.03,-2.96 -21.09,-9.68 -28.03,-19.54l-18.72 10.81c3.96,11.43 7.15,23.18 9.49,35.14 3.25,16.6 4.96,33.69 4.96,51.06 0,17.37 -1.71,34.45 -4.96,51.05 -2.35,11.97 -5.54,23.72 -9.51,35.16l18.76 10.83c6.95,-9.9 17.01,-16.63 28.01,-19.58 12.35,-3.31 26.02,-1.9 38,5 12.03,6.92 20.09,18.08 23.4,30.46 3.31,12.35 1.91,26.01 -5,37.98l-44.8 77.6c-5.3,11.74 -19.09,21.58 -31.28,24.84 -11.71,3.13 -24.6,2.02 -36.11,-3.99 -1.14,-0.47 -2.21,-1.06 -3.21,-1.76 -11.27,-6.95 -18.89,-17.77 -22.08,-29.72 -2.95,-11.02 -2.17,-23.07 2.92,-34.03l-18.79 -10.85c-19.19,22.08 -42.02,40.97 -67.56,55.71 -24.89,14.41 -52.41,24.86 -81.63,30.49l0 21.63c11.97,1.1 22.76,6.46 30.84,14.52 9.14,9.16 14.79,21.69 14.79,35.46 0,13.78 -5.66,26.32 -14.73,35.41 -9.15,9.13 -21.69,14.79 -35.46,14.79l-91.25 0c-13.77,0 -26.31,-5.66 -35.4,-14.73 -9.13,-9.15 -14.79,-21.69 -14.79,-35.46 0,-13.78 5.65,-26.31 14.73,-35.41 8.13,-8.11 18.92,-13.48 30.88,-14.58l0 -21.64c-29.21,-5.63 -56.72,-16.07 -81.64,-30.46 -26.83,-16.84 -46.56,-31.59 -67.53,-55.73l-18.83 10.87c5.09,10.96 5.89,23 2.95,34.01 -3.3,12.39 -11.36,23.55 -23.32,30.46l-1.42 0.74c-11.65,6.26 -24.76,7.45 -36.66,4.27 -12.37,-3.31 -23.52,-11.37 -30.45,-23.39l-44.83 -77.67c-7.45,-10.57 -9.08,-27.1 -5.8,-39.36 3.15,-11.79 10.62,-22.46 21.73,-29.44 0.99,-0.73 2.04,-1.34 3.13,-1.83 11.62,-6.19 24.69,-7.37 36.54,-4.19 11,2.95 21.06,9.68 28.01,19.58l18.76 -10.83c-3.97,-11.44 -7.16,-23.19 -9.51,-35.16 -3.25,-16.6 -4.96,-33.68 -4.96,-51.05 0,-17.35 1.71,-34.45 4.96,-51.05 2.34,-11.92 5.54,-23.67 9.52,-35.14l-18.75 -10.82c-6.94,9.86 -17,16.58 -28.03,19.54 -12.35,3.3 -26.02,1.89 -37.99,-5.01 -12.03,-6.92 -20.09,-18.07 -23.41,-30.45 -3.3,-12.35 -1.9,-26.01 5,-37.98l46.37 -80.35c6.96,-11.28 17.77,-18.89 29.72,-22.09 11.85,-3.18 24.9,-2.02 36.51,4.16 0.98,0.44 1.92,0.98 2.8,1.59 11.27,6.95 18.89,17.77 22.09,29.72 2.95,11.02 2.16,23.08 -2.93,34.05l18.79 10.85c19.18,-22.08 42.02,-40.97 67.55,-55.71 24.9,-14.42 52.41,-24.86 81.63,-30.49l0 -21.64c-11.96,-1.1 -22.75,-6.47 -30.82,-14.52 -9.14,-9.16 -14.79,-21.69 -14.79,-35.46 0,-13.78 5.66,-26.32 14.73,-35.41 9.15,-9.13 21.69,-14.79 35.46,-14.79l91.25 0c13.77,0 26.31,5.66 35.4,14.73 9.13,9.15 14.79,21.69 14.79,35.46 0,13.78 -5.65,26.31 -14.73,35.41 -8.14,8.12 -18.93,13.48 -30.9,14.58l0 21.63zm-171.25 310.5c9.37,0 16.96,7.59 16.96,16.94 0,9.35 -7.59,16.94 -16.94,16.94 -9.4,0 -16.99,-7.59 -16.99,-16.94 0,-9.35 7.59,-16.94 16.97,-16.94zm194.81 -177.87c9.37,0 16.96,7.59 16.96,16.94 0,9.35 -7.59,16.94 -16.94,16.94 -9.4,0 -16.99,-7.59 -16.99,-16.94 0,-9.35 7.59,-16.94 16.97,-16.94zm115.25 122.21c0,53.73 -21.81,102.42 -57.04,137.65 -35.23,35.23 -83.92,57.04 -137.65,57.04 -30.37,0 -50.23,-14.69 -59.25,-33.46 -3.64,-7.58 -5.46,-15.71 -5.46,-23.75 0,-8.04 1.83,-16.17 5.46,-23.75 9.02,-18.77 28.88,-33.46 59.25,-33.46 22.18,0 42.26,-8.99 56.77,-23.5 14.51,-14.51 23.5,-34.59 23.5,-56.77 0,-30.37 14.69,-50.23 33.46,-59.25 7.58,-3.64 15.72,-5.46 23.75,-5.46 8.04,0 16.17,1.83 23.75,5.46 18.77,9.02 33.46,28.88 33.46,59.25zm-80.98 113.71c29.09,-29.09 47.1,-69.31 47.1,-113.71 0,-15.48 -6.21,-25 -14.14,-28.81 -2.8,-1.34 -5.95,-2.02 -9.19,-2.02 -3.23,0 -6.39,0.68 -9.19,2.02 -7.93,3.81 -14.14,13.33 -14.14,28.81 0,31.51 -12.79,60.06 -33.44,80.71 -20.65,20.65 -49.2,33.44 -80.71,33.44 -15.48,0 -25,6.21 -28.81,14.14 -1.33,2.79 -2.02,5.95 -2.02,9.19 0,3.23 0.67,6.38 2.02,9.19 3.81,7.93 13.33,14.14 28.81,14.14 44.4,0 84.62,-18.01 113.71,-47.1zm-183.74 -266.84c23.53,0 44.87,9.56 60.3,24.99 15.43,15.43 24.99,36.76 24.99,60.29 0,23.53 -9.56,44.87 -24.99,60.3 -15.43,15.43 -36.77,24.99 -60.3,24.99 -23.53,0 -44.87,-9.56 -60.3,-24.99 -15.43,-15.43 -24.99,-36.77 -24.99,-60.3 0,-23.48 9.57,-44.81 25.02,-60.26 15.4,-15.46 36.74,-25.02 60.27,-25.02zm36.36 48.93c-9.29,-9.29 -22.16,-15.05 -36.36,-15.05 -14.2,0 -27.07,5.76 -36.36,15.05 -9.31,9.25 -15.05,22.11 -15.05,36.35 0,14.2 5.76,27.07 15.05,36.36 9.29,9.29 22.16,15.05 36.36,15.05 14.2,0 27.07,-5.76 36.36,-15.05 9.29,-9.29 15.05,-22.16 15.05,-36.36 0,-14.2 -5.76,-27.06 -15.05,-36.35zm154.28 -90.96c-24.94,-14.4 -52.9,-24.26 -82.7,-28.43 -8.87,-0.54 -15.91,-7.91 -15.91,-16.91l0 -52.7c0,-9.35 7.59,-16.94 16.94,-16.94l12.38 0c4.5,0 8.6,-1.83 11.55,-4.76 2.92,-2.94 4.76,-7.04 4.76,-11.55 0,-4.51 -1.83,-8.61 -4.76,-11.56 -2.95,-2.93 -7.05,-4.76 -11.55,-4.76l-91.25 0c-4.5,0 -8.6,1.83 -11.55,4.76 -2.93,2.95 -4.76,7.05 -4.76,11.55 0,4.52 1.84,8.62 4.76,11.56 2.95,2.93 7.05,4.76 11.55,4.76l12.36 0c9.35,0 16.94,7.59 16.94,16.94l0 52.71c-0.04,8.33 -6.21,15.6 -14.69,16.74 -30.21,4.06 -58.59,14.01 -83.9,28.62 -26.02,14.97 -48.83,34.95 -67.14,58.58 -5.08,6.56 -14.36,8.54 -21.76,4.3l-45.72 -26.35c-8.07,-4.67 -10.82,-15.02 -6.15,-23.09l6.19 -10.73c2.22,-3.84 2.65,-8.31 1.57,-12.37 -1.04,-3.91 -3.54,-7.46 -7.19,-9.72l-0.43 -0.24c-3.84,-2.22 -8.3,-2.66 -12.36,-1.57 -3.98,1.06 -7.59,3.62 -9.83,7.37 -14.63,26.83 -31.06,53.54 -46.27,80.16 -1.77,3.62 -2.05,7.72 -1.05,11.47 1.03,3.81 3.41,7.27 6.91,9.52l1.6 0.95c3.63,1.76 7.72,2.05 11.47,1.05 4.06,-1.09 7.71,-3.72 9.95,-7.59l6.18 -10.69c4.68,-8.01 14.97,-10.77 23.02,-6.15l45.59 26.32c7.2,4.13 10.42,13.06 7.21,20.97 -5.5,13.45 -9.81,27.75 -12.75,42.72 -2.8,14.32 -4.28,29.24 -4.28,44.57 0,15.34 1.48,30.25 4.28,44.57 2.92,14.88 7.23,29.17 12.76,42.66 3.16,7.71 0.21,16.78 -7.21,21.04l-45.52 26.32c-8.07,4.67 -18.42,1.92 -23.09,-6.15l-6.19 -10.71c-2.2,-3.88 -5.87,-6.5 -9.95,-7.59 -3.95,-1.06 -8.27,-0.69 -12.03,1.32 -4.07,2.44 -6.71,5.55 -7.95,10.2 -1.07,4.03 -0.67,8.45 1.46,12.26 15.45,26.68 30.62,53.7 46.34,80.2 2.23,3.29 5.61,5.55 9.34,6.54 3.74,1 7.82,0.71 11.44,-1.04l1.8 -1.05c3.4,-2.26 5.74,-5.68 6.74,-9.44 1,-3.74 0.71,-7.82 -1.04,-11.44l-6.71 -11.64c-4.63,-8.14 -1.85,-18.46 6.22,-23.09l44.93 -25.93c7.28,-4.69 17.1,-3.1 22.49,3.88 18.11,23.36 40.61,43.15 66.22,58.07 27.83,15.13 51.97,24.53 83.59,28.95 8.87,0.54 15.91,7.91 15.91,16.91l0 52.71c0,9.35 -7.59,16.94 -16.94,16.94l-12.36 0c-4.5,0 -8.6,1.83 -11.55,4.76 -2.92,2.94 -4.76,7.04 -4.76,11.55 0,4.51 1.83,8.61 4.76,11.56 2.95,2.93 7.05,4.76 11.55,4.76l91.25 0c4.5,0 8.6,-1.83 11.55,-4.76 2.93,-2.95 4.76,-7.05 4.76,-11.55 0,-4.52 -1.84,-8.62 -4.76,-11.56 -2.95,-2.93 -7.05,-4.76 -11.55,-4.76l-12.38 0c-9.35,0 -16.94,-7.59 -16.94,-16.94l0 -52.7c0.04,-8.33 6.21,-15.6 14.69,-16.74 30.21,-4.06 58.59,-14.01 83.9,-28.62 26.02,-14.97 48.83,-34.95 67.15,-58.58 5.08,-6.56 14.36,-8.54 21.76,-4.3l45.72 26.35c8.07,4.67 10.82,15.02 6.15,23.09l-6.18 10.71c-2.22,3.85 -2.66,8.31 -1.57,12.37 1.08,4.06 3.72,7.73 7.58,9.96 3.83,2.22 8.32,2.66 12.4,1.57 4.01,-1.07 7.63,-3.62 9.84,-7.32 14.81,-26.93 31.23,-53.34 46.25,-80.21 1.77,-3.62 2.05,-7.72 1.05,-11.47 -1.02,-3.82 -3.41,-7.28 -6.91,-9.53l-1.64 -0.97c-3.62,-1.75 -7.69,-2.02 -11.43,-1.02 -3.86,1.03 -7.35,3.43 -9.57,6.9l-6.57 11.4c-4.68,8.01 -14.97,10.77 -23.02,6.15l-44.95 -25.95c-7.7,-3.97 -11.2,-13.25 -7.85,-21.41 5.53,-13.49 9.84,-27.78 12.76,-42.66 2.8,-14.32 4.28,-29.23 4.28,-44.57 0,-15.34 -1.48,-30.26 -4.28,-44.58 -2.91,-14.87 -7.22,-29.16 -12.75,-42.64 -3.16,-7.71 -0.21,-16.78 7.21,-21.04l45.52 -26.32c8.07,-4.67 18.42,-1.92 23.09,6.15l6.18 10.69c2.24,3.87 5.89,6.5 9.95,7.59 3.99,1.06 8.38,0.67 12.18,-1.42l0.29 -0.17c3.81,-2.2 6.42,-5.85 7.51,-9.93 1.02,-3.85 0.71,-8.05 -1.18,-11.74 -16.02,-26.3 -30.73,-53.92 -46.5,-80.45 -2.25,-3.44 -5.7,-5.8 -9.47,-6.81 -3.73,-1 -7.81,-0.71 -11.43,1.04l-1.79 1.05c-3.42,2.26 -5.75,5.68 -6.76,9.44 -1,3.74 -0.71,7.82 1.04,11.44l6.72 11.66c4.63,8.14 1.85,18.46 -6.22,23.09l-44.92 25.93c-7.28,4.69 -17.1,3.1 -22.49,-3.88 -18.28,-23.59 -41.11,-43.56 -67.13,-58.61z"/></g></svg>