<svg xmlns="http://www.w3.org/2000/svg" xmlns:xlink="http://www.w3.org/1999/xlink" xmlns:xodm="http://www.corel.com/coreldraw/odm/2003" xml:space="preserve" version="1.1" style="shape-rendering:geometricPrecision;text-rendering:geometricPrecision;image-rendering:optimizeQuality;" viewBox="0 0 846.66 1058.325" x="0px" y="0px" fill-rule="evenodd" clip-rule="evenodd"><defs><style type="text/css">
   
    .fil0 {fill:white;fill-rule:nonzero;stroke-width:24;stroke:black}
   
  </style></defs><g><path class="fil0" d="M671.15 588.54c-9.8,0 -17.75,-7.95 -17.75,-17.75 0,-9.79 7.95,-17.74 17.91,-17.74 9.98,0 17.93,7.95 17.93,17.74 0,9.8 -7.95,17.75 -18.09,17.75zm-247.56 153.23c-9.79,0 -17.74,-7.95 -17.74,-17.74 0,-9.8 7.95,-17.75 17.91,-17.75 9.97,0 17.92,7.95 17.92,17.75 0,9.79 -7.95,17.74 -18.09,17.74zm-129.66 -235.75c-9.8,0 -17.75,-7.95 -17.75,-17.75 0,-9.79 7.95,-17.74 17.93,-17.74 9.96,0 17.91,7.95 17.91,17.74 0,9.8 -7.95,17.75 -18.09,17.75zm-117.88 -223.97c-9.8,0 -17.75,-7.95 -17.75,-17.75 0,-9.79 7.95,-17.74 17.93,-17.74 9.96,0 17.91,7.95 17.91,17.74 0,9.8 -7.95,17.75 -18.09,17.75zm0 294.69c-9.8,0 -17.75,-7.95 -17.75,-17.74 0,-9.8 7.95,-17.75 17.93,-17.75 9.96,0 17.91,7.95 17.91,17.75 0,9.79 -7.95,17.74 -18.09,17.74zm129.66 -200.39c-9.79,0 -17.74,-7.95 -17.74,-17.74 0,-9.8 7.95,-17.75 17.92,-17.75 9.96,0 17.92,7.95 17.92,17.75 0,9.79 -7.96,17.74 -18.1,17.74zm117.88 212.19c-9.79,0 -17.74,-7.95 -17.74,-17.75 0,-9.79 7.95,-17.74 17.91,-17.74 9.97,0 17.92,7.95 17.92,17.74 0,9.8 -7.95,17.75 -18.09,17.75zm117.88 -70.74c-9.79,0 -17.75,-7.95 -17.75,-17.74 0,-9.8 7.96,-17.75 17.92,-17.75 9.97,0 17.92,7.95 17.92,17.75 0,9.79 -7.95,17.74 -18.09,17.74zm0 -165.03c-9.79,0 -17.75,-7.95 -17.75,-17.74 0,-9.8 7.96,-17.75 17.92,-17.75 9.97,0 17.92,7.95 17.92,17.75 0,9.79 -7.95,17.74 -18.09,17.74zm-70.72 -70.72c-9.8,0 -17.75,-7.95 -17.75,-17.75 0,-9.79 7.95,-17.74 17.91,-17.74 9.98,0 17.93,7.95 17.93,17.74 0,9.8 -7.95,17.75 -18.09,17.75zm-168.17 284.67c16.38,0 31.26,6.66 42.03,17.43 10.81,10.82 17.48,25.71 17.48,42.07 0,16.39 -6.67,31.26 -17.44,42.03 -10.82,10.81 -25.71,17.48 -42.07,17.48 -16.38,0 -31.26,-6.67 -42.03,-17.44 -10.81,-10.82 -17.47,-25.69 -17.47,-42.07 0,-16.37 6.66,-31.26 17.43,-42.03 10.82,-10.81 25.7,-17.47 42.07,-17.47zm365.43 -200.4c16.39,0 31.26,6.66 42.03,17.43 10.82,10.82 17.48,25.7 17.48,42.07 0,16.39 -6.66,31.26 -17.43,42.03 -10.83,10.82 -25.7,17.48 -42.08,17.48 -16.37,0 -31.26,-6.66 -42.03,-17.43 -10.81,-10.83 -17.47,-25.7 -17.47,-42.08 0,-16.38 6.66,-31.26 17.43,-42.03 10.82,-10.81 25.71,-17.47 42.07,-17.47zm-117.88 212.18c16.39,0 31.27,6.67 42.04,17.44 10.81,10.82 17.47,25.7 17.47,42.07 0,16.38 -6.66,31.26 -17.43,42.03 -10.83,10.81 -25.7,17.47 -42.08,17.47 -16.37,0 -31.26,-6.66 -42.03,-17.43 -10.81,-10.82 -17.47,-25.7 -17.47,-42.07 0,-16.38 6.66,-31.26 17.43,-42.03 10.82,-10.81 25.71,-17.48 42.07,-17.48zm-129.67 -212.18c16.38,0 31.26,6.66 42.03,17.43 10.81,10.82 17.47,25.7 17.47,42.07 0,16.39 -6.66,31.26 -17.43,42.03 -10.82,10.82 -25.7,17.48 -42.07,17.48 -16.39,0 -31.26,-6.66 -42.03,-17.43 -10.81,-10.83 -17.48,-25.7 -17.48,-42.08 0,-16.38 6.67,-31.26 17.44,-42.03 10.82,-10.81 25.7,-17.47 42.07,-17.47zm-247.54 -11.79c16.37,0 31.26,6.67 42.03,17.44 10.81,10.82 17.47,25.69 17.47,42.07 0,16.38 -6.66,31.26 -17.43,42.03 -10.82,10.81 -25.71,17.47 -42.07,17.47 -16.39,0 -31.26,-6.66 -42.03,-17.43 -10.82,-10.82 -17.48,-25.7 -17.48,-42.07 0,-16.39 6.66,-31.26 17.43,-42.03 10.83,-10.81 25.7,-17.48 42.08,-17.48zm141.45 -200.4c16.37,0 31.26,6.67 42.03,17.44 10.81,10.82 17.47,25.69 17.47,42.07 0,16.37 -6.66,31.26 -17.43,42.03 -10.82,10.81 -25.71,17.47 -42.07,17.47 -16.39,0 -31.26,-6.66 -42.03,-17.43 -10.82,-10.82 -17.48,-25.71 -17.48,-42.07 0,-16.39 6.66,-31.26 17.43,-42.03 10.83,-10.81 25.7,-17.48 42.08,-17.48zm471.35 182.4c-6.08,-25.53 -14.8,-50.04 -25.81,-73.18 -7.98,4.14 -16.52,6.9 -25.23,8.22 -11.99,1.81 -24.47,0.93 -36.39,-2.77 -11.92,-3.71 -22.69,-10.08 -31.54,-18.39 -6.28,-5.89 -11.62,-12.79 -15.79,-20.45 -15.88,9.27 -33.71,13.78 -51.45,13.54 -21.21,-0.3 -42.34,-7.36 -59.9,-21.1 -17.6,-13.76 -29.57,-32.55 -34.95,-53.03 -4.02,-15.26 -4.4,-31.47 -0.82,-47.27 -7.16,1.1 -14.39,1.19 -21.49,0.31 -12.67,-1.62 -24.98,-6.37 -35.68,-14.06 -10.55,-7.58 -18.85,-17.59 -24.48,-29.11 -4.34,-8.98 -6.91,-18.53 -7.6,-28.39 -99.4,2.29 -189.19,43.52 -254.68,109 -67.41,67.42 -109.12,160.56 -109.12,263.43 0,102.86 41.71,196.01 109.12,263.42 67.41,67.4 160.55,109.11 263.42,109.11 102.87,0 196.01,-41.71 263.42,-109.11 67.41,-67.41 109.12,-160.56 109.12,-263.42 0,-29.9 -3.53,-58.96 -10.15,-86.75z"/></g></svg>